# xmcd CD database file
#
# Track frame offsets:
#	150
#	21410
#	40855
#	58995
#	76397
#	93242
#	113707
#	131590
#	149122
#	166780
#	183622
#	205620
#
# Disc length: 3021 seconds
#
# Revision: 21
# Processed by: cddbd v1.5.2PL0 Copyright (c) Steve Scherf et al.
# Submitted via: CDex 1.79
#
DISCID=a80bcb0c
DTITLE=Cher - Living Proof (UK Edition)
DYEAR=2001
DGENRE=Pop
TTITLE0=The Music's No Good Without You
TTITLE1=Alive Again
TTITLE2=(This Is) A Song For The Lonely
TTITLE3=A Different Kind Of Love Song
TTITLE4=Rain, Rain
TTITLE5=Love So High
TTITLE6=Body To Body, Heart To Heart
TTITLE7=Love Is A Lonely Place Without You
TTITLE8=Real Love
TTITLE9=Love One Another
TTITLE10=You Take It All
TTITLE11=When The Money's Gone
EXTD=YEAR: 2001
EXTT0=
EXTT1=
EXTT2=
EXTT3=
EXTT4=
EXTT5=
EXTT6=
EXTT7=
EXTT8=
EXTT9=
EXTT10=
EXTT11=
PLAYORDER=
